<svg data-name="Ebene 1" xmlns="http://www.w3.org/2000/svg" width="95.13" height="95.13" viewBox="0 0 95.13 95.13"><title>BlueBird-Header</title><path d="M84.54 11.22l-6.08 3.12c7.41 14.13 2.35 34.78-13.32 49.78C53.8 75 39.42 80.88 19.52 81v14.17c23.38 0 41.11-9.6 54.32-22.52C92.85 54 97.45 27.22 84.54 11.22z" fill="#00bdff"/><circle cx="10.46" cy="54.94" r="9.68" fill="#ed1e79"/><path d="M43.28 40.17c5.84-5.72 6.75-14.11 2-18.73s-13.26-3.74-19.1 2-6.74 14.11-2 18.73 13.27 3.73 19.1-2z" fill="#6ddc00"/><path d="M65.69 11.42C54.49.45 32.27 2.77 17.76 17a36.69 36.69 0 0 0-8.94 14.28h4.45c1.12-4.22 3.92-8.35 7.52-11.88C31.12 9.26 46.65 7.53 54.62 15.34S61.18 37.86 50.85 48c-6.19 6.08-14.44 9.19-21.42 9v12.57a48.65 48.65 0 0 0 30.26-12.48c14.94-13.79 17.19-34.7 6-45.67z" fill="#00bdff"/></svg>
